<?xml version="1.0" encoding="UTF-8" standalone="no"?>
<!-- Created with Inkscape (http://www.inkscape.org/) -->
<svg id="svg3090" xmlns:rdf="http://www.w3.org/1999/02/22-rdf-syntax-ns#" xmlns="http://www.w3.org/2000/svg" height="400" width="640" version="1.1" xmlns:cc="http://creativecommons.org/ns#" xmlns:dc="http://purl.org/dc/elements/1.1/">
 <metadata id="metadata3096">
  <rdf:RDF>
   <cc:Work rdf:about="">
    <dc:format>image/svg+xml</dc:format>
    <dc:type rdf:resource="http://purl.org/dc/dcmitype/StillImage"/>
    <dc:title/>
   </cc:Work>
  </rdf:RDF>
 </metadata>
 <path id="path3100" fill="#000" d="m117.56,308.56h-15v-15h15v-23h15v23h15v15h-15v45h-15v-45zm37-38h15v23h30v60h-15v-45h-15v45h-15v-83zm52,23h45v37h-30v8h30v15h-45v-60zm30,15h-15v7h15v-7zm62-15h15v45h15v-30h15v30h15v-45h15v60h-75v-60zm82,0h15v45h15v-45h15v60h-45v-60zm52,0h44v15h-29v45h-15v-60zm52,45h30v-8h-30v-37h45v15h-30v7h30v38h-45v-15zm67-30h-15v-15h15v-23h15v23h15v15h-15v45h-15v-45zm-251-135h45v60h-45v-60zm30,15h-15v30h15v-30zm22-38h30v15h-15v8h15v15h-15v45h-15v-83zm-178-52h30v-8h-30v-37h45v15h-30v7h30v38h-45v-15zm52-26.5,0-41.5h15v23h30v60h-15v-45h-15v45h-15zm52,3.5h30v-7h-30v-15h45v60h-45v-38zm30,15h-15v8h15v-8zm22-7,0-30h30v-23h15v83h-45zm30-15h-15v30h15v-30zm22-15h45v60h-45v-60zm30,15h-15v30h15v-30zm22-15h15v45h15v-30h15v30h15v-45h15v60h-75v-60z"/>
</svg>
