# 3ds Max Wavefront OBJ Exporter v0.97b - (c)2007 guruware
# File Created: 15.03.2015 10:58:53

mtllib logo_revision.mtl

#
# object logo_revision_2
#

v  11.793272018433 1.000000000000 3.582343101501
v  12.292846679688 1.000000000000 1.494999885559
v  12.328538894653 1.000000000000 -0.451485633850
v  7.632225036621 1.000000000000 9.568019866943
v  10.793455123901 1.000000000000 -0.056010246277
v  9.455944061279 1.000000000000 0.000672340393
v  8.976940155029 1.000000000000 2.729961395264
v  10.342426300049 1.000000000000 3.159625053406
v  10.466800689697 1.000000000000 -8.509547233582
v  8.961339950562 1.000000000000 5.986007690430
v  7.867765426636 1.000000000000 5.293200492859
v  6.689649581909 1.000000000000 6.673514366150
v  7.624505996704 1.000000000000 7.680502891541
v  3.551530838013 1.000000000000 10.232233047485
v  3.064649581909 1.000000000000 8.965181350708
v  -1.275672912598 1.000000000000 9.386148452759
v  -1.490906715393 1.000000000000 10.729069709778
v  -6.203563690186 1.000000000000 8.866739273071
v  -5.466016769409 1.000000000000 7.768948078156
v  -7.699860572815 1.000000000000 5.648466587067
v  -9.429000854492 1.000000000000 1.949628591537
v  -9.389907836914 1.000000000000 -1.011781692505
v  -10.698547363281 1.000000000000 -1.185116767883
v  -7.273015022278 1.000000000000 9.998263359070
v  -4.518042564392 1.000000000000 -9.823389053345
v  -3.900372505188 1.000000000000 -8.615884780884
v  -0.142418861389 1.000000000000 -9.420408248901
v  -0.130020141602 1.000000000000 -10.778127670288
v  3.293897628784 1.000000000000 -10.252222061157
v  2.974420547485 1.000000000000 -8.973951339722
v  4.466737747192 1.000000000000 -8.311515808105
v  5.201349258423 1.000000000000 -9.422216415405
v  13.238260269165 1.000000000000 -0.472318649292
v  12.622544288635 1.000000000000 -4.380338191986
v  10.472678184509 1.000000000000 -3.478363037109
v  8.304933547974 1.000000000000 -6.904418945313
v  6.660717010498 1.000000000000 -11.505992889404
v  6.123578548431 1.000000000000 -10.518009185791
v  -0.721822023392 1.000000000000 -12.008190155029
v  2.620910644531 1.000000000000 -11.683755874634
v  -7.869811058044 1.000000000000 -9.366347312927
v  -4.727343559265 1.000000000000 -11.343208312988
v  -7.325503349304 1.000000000000 -7.960660934448
v  -9.971368789673 1.000000000000 -4.340147495270
v  -10.142129898071 1.000000000000 -6.994483947754
v  -11.644838333130 1.000000000000 -4.036964416504
v  -12.330487251282 1.000000000000 1.089898109436
v  -11.095066070557 1.000000000000 5.573390960693
v  -8.629795074463 1.000000000000 8.854069709778
v  -9.157573699951 1.000000000000 9.409626007080
v  -7.801606178284 1.000000000000 10.551191329956
v  -3.829481124878 1.000000000000 10.102157592773
v  0.444851875305 1.000000000000 12.255999565125
v  -3.799814224243 1.000000000000 11.672582626343
v  4.204442977905 1.000000000000 11.484538078308
v  10.310234069824 1.000000000000 6.714560508728
v  12.328538894653 -1.000000000000 -0.451485633850
v  12.292846679688 -1.000000000000 1.494999885559
v  11.793272018433 -1.000000000000 3.582343101501
v  7.632225036621 -1.000000000000 9.568019866943
v  10.310234069824 -1.000000000000 6.714560508728
v  4.204442977905 -1.000000000000 11.484538078308
v  0.444851875305 -1.000000000000 12.255999565125
v  7.624505996704 -1.000000000000 7.680502891541
v  -3.799814224243 -1.000000000000 11.672582626343
v  -7.273015022278 -1.000000000000 9.998263359070
v  -1.490906715393 -1.000000000000 10.729069709778
v  -7.801606178284 -1.000000000000 10.551191329956
v  -9.157573699951 -1.000000000000 9.409626007080
v  -8.629795074463 -1.000000000000 8.854069709778
v  -11.095066070557 -1.000000000000 5.573390960693
v  -12.330487251282 -1.000000000000 1.089898109436
v  -11.644838333130 -1.000000000000 -4.036964416504
v  -10.698547363281 -1.000000000000 -1.185116767883
v  -10.142129898071 -1.000000000000 -6.994483947754
v  -7.869811058044 -1.000000000000 -9.366347312927
v  -9.971368789673 -1.000000000000 -4.340147495270
v  -4.727343559265 -1.000000000000 -11.343208312988
v  -0.721822023392 -1.000000000000 -12.008190155029
v  -4.518042564392 -1.000000000000 -9.823389053345
v  2.620910644531 -1.000000000000 -11.683755874634
v  6.123578548431 -1.000000000000 -10.518009185791
v  10.466800689697 -1.000000000000 -8.509547233582
v  6.660717010498 -1.000000000000 -11.505992889404
v  12.622544288635 -1.000000000000 -4.380338191986
v  13.238260269165 -1.000000000000 -0.472318649292
v  10.342426300049 -1.000000000000 3.159625053406
v  10.793455123901 -1.000000000000 -0.056010246277
v  10.472678184509 -1.000000000000 -3.478363037109
v  8.304933547974 -1.000000000000 -6.904418945313
v  5.201349258423 -1.000000000000 -9.422216415405
v  3.293897628784 -1.000000000000 -10.252222061157
v  4.466737747192 -1.000000000000 -8.311515808105
v  2.974420547485 -1.000000000000 -8.973951339722
v  -0.130020141602 -1.000000000000 -10.778127670288
v  -0.142418861389 -1.000000000000 -9.420408248901
v  -3.900372505188 -1.000000000000 -8.615884780884
v  -7.325503349304 -1.000000000000 -7.960660934448
v  -9.389907836914 -1.000000000000 -1.011781692505
v  -9.429000854492 -1.000000000000 1.949628591537
v  -7.699860572815 -1.000000000000 5.648466587067
v  -5.466016769409 -1.000000000000 7.768948078156
v  -6.203563690186 -1.000000000000 8.866739273071
v  -3.829481124878 -1.000000000000 10.102157592773
v  -1.275672912598 -1.000000000000 9.386148452759
v  3.064649581909 -1.000000000000 8.965181350708
v  3.551530838013 -1.000000000000 10.232233047485
v  6.689649581909 -1.000000000000 6.673514366150
v  7.867765426636 -1.000000000000 5.293200492859
v  8.961339950562 -1.000000000000 5.986007690430
v  8.976940155029 -1.000000000000 2.729961395264
v  9.455944061279 -1.000000000000 0.000672340393
# 112 vertices

vn 0.000000000000 1.000000000000 -0.000000000000
vn 0.000000000000 0.999999940395 -0.000000000000
vn 0.000000000000 -1.000000000000 -0.000000000000
vn 0.000000000000 -0.999999940395 -0.000000000000
vn -0.995636045933 0.000000000000 0.093320913613
vn -0.042341146618 0.000000000000 -0.999103188515
vn -0.984945774078 0.000000000000 -0.172862917185
vn -0.300151348114 0.000000000000 0.953891515732
vn 0.535167872906 0.000000000000 -0.844745755196
vn -0.760619163513 0.000000000000 -0.649198353291
vn -0.732867658138 0.000000000000 0.680371224880
vn 0.933455705643 0.000000000000 -0.358692616224
vn -0.096536815166 0.000000000000 -0.995329380035
vn -0.987398564816 0.000000000000 -0.158253163099
vn 0.830060660839 0.000000000000 0.557673156261
vn 0.688464403152 0.000000000000 -0.725270152092
vn 0.905899941921 0.000000000000 -0.423491954803
vn 0.999912858009 0.000000000000 0.013199660927
vn 0.131307572126 0.000000000000 -0.991341710091
vn -0.890284895897 0.000000000000 0.455404043198
vn 0.209341913462 0.000000000000 0.977842450142
vn 0.999958276749 0.000000000000 0.009131638333
vn -0.970158696175 0.000000000000 -0.242470920086
vn -0.405720800161 0.000000000000 0.913997054100
vn 0.834074258804 0.000000000000 0.551652312279
vn -0.845052063465 0.000000000000 0.534683942795
vn -0.630009949207 0.000000000000 0.776587069035
vn 0.618580877781 0.000000000000 -0.785721123219
vn -0.878553271294 0.000000000000 -0.477644294500
vn 0.315786659718 0.000000000000 -0.948830306530
vn 0.096602678299 0.000000000000 -0.995323061943
vn -0.151817202568 0.000000000000 0.988408565521
vn -0.163774684072 0.000000000000 -0.986497759819
vn -0.532479584217 0.000000000000 -0.846442818642
vn 0.552867531776 0.000000000000 0.833269119263
vn 0.807379901409 0.000000000000 0.590031921864
vn -0.722097218037 0.000000000000 -0.691791594028
vn -0.891520917416 0.000000000000 -0.452979624271
vn 0.974452435970 0.000000000000 0.224593997002
vn -0.991175532341 0.000000000000 -0.132556393743
vn -0.964069962502 0.000000000000 0.265648335218
vn -0.799442708492 0.000000000000 0.600742399693
vn -0.724999368191 0.000000000000 -0.688749551773
vn -0.644036054611 0.000000000000 0.764995157719
vn 0.722835421562 0.000000000000 0.691020190716
vn 0.461616069078 0.000000000000 -0.887079834938
vn 0.258931964636 0.000000000000 -0.965895593166
vn -0.434244543314 0.000000000000 0.900795042515
vn -0.136166885495 0.000000000000 0.990685939789
vn -0.530914425850 0.000000000000 -0.847425520420
vn 0.201009988785 0.000000000000 0.979589223862
vn 0.488013982773 0.000000000000 0.872835755348
vn -0.898472249508 0.000000000000 -0.439030349255
vn 0.729168474674 0.000000000000 0.684334158897
vn 0.903809726238 0.000000000000 0.427934557199
vn 0.972533822060 0.000000000000 0.232761561871
vn 0.999831914902 0.000000000000 0.018333666027
vn 0.886463820934 0.000000000000 -0.462797760963
vn 0.987815082073 0.000000000000 -0.155632168055
vn 0.022894432768 0.000000000000 0.999737918377
# 60 vertex normals

g logo_revision_2
usemtl logo_revision
s off
f 1//1 2//1 3//1 4//1 
f 5//1 6//1 7//1 8//1 
f 3//1 9//1 5//1 8//1 
f 10//1 11//1 12//1 13//1 
f 14//1 15//1 16//1 17//1 
f 18//1 19//1 20//1 21//1 
f 21//1 22//1 23//1 24//1 
f 25//1 26//1 27//1 28//1 
f 29//1 30//1 31//1 32//1 
f 3//2 33//2 34//2 9//2 
f 35//2 5//2 9//2 36//2 
f 32//2 36//2 9//2 29//2 
f 9//1 37//1 38//1 39//1 
f 38//1 40//1 39//1 
f 29//1 9//1 39//1 28//1 
f 25//2 28//2 39//2 41//2 
f 39//1 42//1 41//1 
f 43//1 25//1 41//1 44//1 
f 41//1 45//1 46//1 44//1 
f 23//1 44//1 46//1 24//1 
f 46//1 47//1 48//1 49//1 
f 49//1 50//1 51//1 24//1 
f 46//1 49//1 24//1 
f 18//1 21//1 24//1 52//1 
f 17//1 52//1 24//1 53//1 
f 24//1 54//1 53//1 
f 14//1 17//1 53//1 13//1 
f 53//1 55//1 4//1 13//1 
f 10//1 13//1 4//1 8//1 
f 3//1 8//1 4//1 
f 1//1 4//1 56//1 
f 57//3 58//3 59//3 60//3 
f 59//3 61//3 60//3 
f 60//3 62//3 63//3 64//3 
f 63//3 65//3 66//3 67//3 
f 68//3 69//3 70//3 66//3 
f 71//3 72//3 73//3 70//3 
f 66//3 70//3 73//3 74//3 
f 73//3 75//3 76//3 77//3 
f 76//3 78//3 79//3 80//3 
f 79//3 81//3 82//3 83//3 
f 82//3 84//3 83//3 
f 85//4 86//4 57//4 83//4 
f 83//3 57//3 87//3 88//3 
f 83//4 88//4 89//4 90//4 
f 83//4 90//4 91//4 92//4 
f 93//3 94//3 92//3 91//3 
f 79//3 83//3 92//3 95//3 
f 96//3 97//3 80//3 95//3 
f 79//3 95//3 80//3 
f 76//3 80//3 98//3 77//3 
f 73//3 77//3 74//3 
f 74//3 99//3 100//3 66//3 
f 101//3 102//3 103//3 100//3 
f 66//3 100//3 103//3 104//3 
f 66//3 104//3 67//3 
f 105//3 106//3 107//3 67//3 
f 63//3 67//3 107//3 64//3 
f 108//3 109//3 110//3 64//3 
f 60//3 64//3 110//3 87//3 
f 57//3 60//3 87//3 
f 111//3 112//3 88//3 87//3 
f 89//5 88//5 5//5 35//5 
f 88//6 112//6 6//6 5//6 
f 112//7 111//7 7//7 6//7 
f 111//8 87//8 8//8 7//8 
f 110//9 109//9 11//9 10//9 
f 109//10 108//10 12//10 11//10 
f 108//11 64//11 13//11 12//11 
f 107//12 106//12 15//12 14//12 
f 106//13 105//13 16//13 15//13 
f 105//14 67//14 17//14 16//14 
f 103//15 102//15 19//15 18//15 
f 102//16 101//16 20//16 19//16 
f 101//17 100//17 21//17 20//17 
f 100//18 99//18 22//18 21//18 
f 99//19 74//19 23//19 22//19 
f 80//20 97//20 26//20 25//20 
f 97//21 96//21 27//21 26//21 
f 96//22 95//22 28//22 27//22 
f 92//23 94//23 30//23 29//23 
f 94//24 93//24 31//24 30//24 
f 93//25 91//25 32//25 31//25 
f 90//26 89//26 35//26 36//26 
f 91//27 90//27 36//27 32//27 
f 83//28 84//28 37//28 9//28 
f 84//29 82//29 38//29 37//29 
f 82//30 81//30 40//30 38//30 
f 81//31 79//31 39//31 40//31 
f 95//32 92//32 29//32 28//32 
f 79//33 78//33 42//33 39//33 
f 78//34 76//34 41//34 42//34 
f 98//35 80//35 25//35 43//35 
f 77//36 98//36 43//36 44//36 
f 76//37 75//37 45//37 41//37 
f 75//38 73//38 46//38 45//38 
f 74//39 77//39 44//39 23//39 
f 73//40 72//40 47//40 46//40 
f 72//41 71//41 48//41 47//41 
f 71//42 70//42 49//42 48//42 
f 70//43 69//43 50//43 49//43 
f 69//44 68//44 51//44 50//44 
f 68//45 66//45 24//45 51//45 
f 104//46 103//46 18//46 52//46 
f 67//47 104//47 52//47 17//47 
f 66//48 65//48 54//48 24//48 
f 65//49 63//49 53//49 54//49 
f 64//50 107//50 14//50 13//50 
f 63//51 62//51 55//51 53//51 
f 62//52 60//52 4//52 55//52 
f 87//53 110//53 10//53 8//53 
f 60//54 61//54 56//54 4//54 
f 61//55 59//55 1//55 56//55 
f 59//56 58//56 2//56 1//56 
f 58//57 57//57 3//57 2//57 
f 85//58 83//58 9//58 34//58 
f 86//59 85//59 34//59 33//59 
f 57//60 86//60 33//60 3//60 
# 106 polygons - 12 triangles

