# 3ds Max Wavefront OBJ Exporter v0.97b - (c)2007 guruware
# File Created: 15.03.2015 10:58:20

mtllib logo_revision.mtl

#
# object logo_revision_0
#

v  1.835486650467 1.000000000000 -1.677427768707
v  0.384093284607 1.000000000000 -2.395931243896
v  -0.975258827209 1.000000000000 -2.244979381561
v  -1.904893875122 1.000000000000 -1.516474723816
v  -2.322029113770 1.000000000000 0.994150161743
v  -1.175720810890 1.000000000000 0.074817299843
v  -0.973715066910 1.000000000000 -0.737791299820
v  -0.195074081421 1.000000000000 -1.147172927856
v  0.529987335205 1.000000000000 -1.029700279236
v  1.078537940979 1.000000000000 -0.479263305664
v  -2.328258514404 1.000000000000 -0.784525871277
v  -2.463894844055 1.000000000000 0.016650199890
v  -0.960138320923 1.000000000000 0.759929656982
v  -0.356180906296 1.000000000000 1.131825327873
v  -4.004795074463 1.000000000000 1.715180397034
v  -2.903515815735 1.000000000000 3.349944591522
v  -0.729461669922 1.000000000000 4.316387176514
v  -0.385873794556 1.000000000000 2.500551223755
v  0.450393676758 1.000000000000 1.135345458984
v  2.341375827789 1.000000000000 0.688760936260
v  0.934101104736 1.000000000000 2.243380308151
v  1.793584823608 1.000000000000 1.682854652405
v  1.136569023132 1.000000000000 0.411743164063
v  2.391163349152 1.000000000000 -0.362161695957
v  -0.975258827209 -1.000000000000 -2.244979381561
v  0.384093284607 -1.000000000000 -2.395931243896
v  1.835486650467 -1.000000000000 -1.677427768707
v  -1.904893875122 -1.000000000000 -1.516474723816
v  2.391163349152 -1.000000000000 -0.362161695957
v  2.341375827789 -1.000000000000 0.688760936260
v  1.078537940979 -1.000000000000 -0.479263305664
v  1.793584823608 -1.000000000000 1.682854652405
v  0.934101104736 -1.000000000000 2.243380308151
v  -0.385873794556 -1.000000000000 2.500551223755
v  -0.729461669922 -1.000000000000 4.316387176514
v  -2.903515815735 -1.000000000000 3.349944591522
v  -4.004795074463 -1.000000000000 1.715180397034
v  -2.322029113770 -1.000000000000 0.994150161743
v  -0.356180906296 -1.000000000000 1.131825327873
v  -2.463894844055 -1.000000000000 0.016650199890
v  -2.328258514404 -1.000000000000 -0.784525871277
v  -0.973715066910 -1.000000000000 -0.737791299820
v  -1.175720810890 -1.000000000000 0.074817299843
v  -0.960138320923 -1.000000000000 0.759929656982
v  0.450393676758 -1.000000000000 1.135345458984
v  1.136569023132 -1.000000000000 0.411743164063
v  0.529987335205 -1.000000000000 -1.029700279236
v  -0.195074081421 -1.000000000000 -1.147172927856
# 48 vertices

vn 0.000000000000 1.000000000000 -0.000000000000
vn 0.000000000000 -1.000000000000 -0.000000000000
vn 0.524332165718 0.000000000000 -0.851513862610
vn 0.953889548779 0.000000000000 -0.300157904625
vn -0.829362750053 0.000000000000 0.558710575104
vn -0.406207352877 0.000000000000 0.913780868053
vn 0.982565104961 0.000000000000 0.185918480158
vn -0.393847703934 0.000000000000 -0.919175803661
vn 0.004364255350 0.000000000000 -0.999990463257
vn 0.191234439611 0.000000000000 0.981544375420
vn 0.546262800694 0.000000000000 0.837613761425
vn 0.875828981400 0.000000000000 0.482621729374
vn -0.725623428822 0.000000000000 -0.688091993332
vn -0.997885823250 0.000000000000 0.064992114902
vn 0.998879611492 0.000000000000 0.047321978956
vn 0.921163737774 0.000000000000 -0.389175385237
vn -0.708319425583 0.000000000000 0.705892026424
vn -0.159932032228 0.000000000000 0.987128019333
vn 0.443656772375 0.000000000000 -0.896196722984
vn -0.110368497670 0.000000000000 -0.993890643120
vn -0.616814374924 0.000000000000 -0.787108600140
vn 0.465364158154 0.000000000000 0.885119378567
vn 0.970463812351 0.000000000000 0.241246849298
vn -0.865628898144 0.000000000000 -0.500686168671
vn -0.985970139503 0.000000000000 -0.166921332479
vn -0.989631950855 0.000000000000 0.143626466393
# 26 vertex normals

g logo_revision_0
usemtl logo_revision
s off
f 1//1 2//1 3//1 4//1 
f 4//1 5//1 6//1 7//1 
f 4//1 7//1 8//1 1//1 
f 1//1 8//1 9//1 10//1 
f 11//1 12//1 5//1 4//1 
f 13//1 6//1 5//1 14//1 
f 15//1 16//1 17//1 18//1 
f 5//1 15//1 18//1 14//1 
f 19//1 14//1 18//1 20//1 
f 18//1 21//1 22//1 20//1 
f 23//1 19//1 20//1 10//1 
f 1//1 10//1 20//1 24//1 
f 25//2 26//2 27//2 28//2 
f 27//2 29//2 30//2 31//2 
f 32//2 33//2 34//2 30//2 
f 35//2 36//2 37//2 34//2 
f 34//2 37//2 38//2 39//2 
f 38//2 40//2 41//2 28//2 
f 38//2 28//2 42//2 43//2 
f 38//2 43//2 44//2 39//2 
f 34//2 39//2 45//2 30//2 
f 30//2 45//2 46//2 31//2 
f 27//2 31//2 47//2 48//2 
f 48//2 42//2 28//2 27//2 
f 39//3 44//3 13//3 14//3 
f 44//4 43//4 6//4 13//4 
f 37//5 36//5 16//5 15//5 
f 36//6 35//6 17//6 16//6 
f 35//7 34//7 18//7 17//7 
f 38//8 37//8 15//8 5//8 
f 45//9 39//9 14//9 19//9 
f 34//10 33//10 21//10 18//10 
f 33//11 32//11 22//11 21//11 
f 32//12 30//12 20//12 22//12 
f 46//13 45//13 19//13 23//13 
f 31//14 46//14 23//14 10//14 
f 30//15 29//15 24//15 20//15 
f 29//16 27//16 1//16 24//16 
f 47//17 31//17 10//17 9//17 
f 48//18 47//18 9//18 8//18 
f 27//19 26//19 2//19 1//19 
f 26//20 25//20 3//20 2//20 
f 25//21 28//21 4//21 3//21 
f 42//22 48//22 8//22 7//22 
f 43//23 42//23 7//23 6//23 
f 28//24 41//24 11//24 4//24 
f 41//25 40//25 12//25 11//25 
f 40//26 38//26 5//26 12//26 
# 48 polygons

