#define flewww_width 40
#define flewww_height 40
static unsigned char flewww_bits[] = {
   0x00, 0x00, 0x00, 0x00, 0x00, 0x00, 0x00, 0x00, 0x00, 0x00, 0x00, 0x00,
   0x00, 0x00, 0x00, 0x00, 0x38, 0x00, 0x00, 0x00, 0x00, 0x44, 0x00, 0x00,
   0x00, 0xff, 0x83, 0xff, 0x0f, 0x00, 0x00, 0x28, 0x00, 0x30, 0x00, 0x00,
   0x10, 0x00, 0xc0, 0x00, 0xff, 0x83, 0xff, 0x0f, 0x03, 0x00, 0x54, 0x00,
   0x30, 0xcc, 0x00, 0x54, 0x00, 0xc0, 0x30, 0xfc, 0x54, 0x06, 0x01, 0x03,
   0xfe, 0x54, 0x06, 0x01, 0xcc, 0x06, 0x44, 0x06, 0x01, 0x30, 0xc6, 0x38,
   0x06, 0x45, 0x00, 0xc6, 0x00, 0x06, 0x45, 0x00, 0xde, 0x00, 0x06, 0x45,
   0x00, 0xde, 0x00, 0x06, 0x45, 0x43, 0xc6, 0xf8, 0x26, 0x45, 0x43, 0xc6,
   0x0c, 0x76, 0x45, 0x43, 0xc6, 0x0c, 0xde, 0x45, 0x43, 0xc6, 0x00, 0x8c,
   0x44, 0x43, 0xc0, 0x3f, 0x00, 0x54, 0x43, 0x80, 0x3f, 0x00, 0x54, 0x43,
   0x1f, 0x00, 0x40, 0x28, 0x4b, 0x20, 0x0c, 0xa0, 0x00, 0x5f, 0x40, 0x0c,
   0x10, 0x01, 0x77, 0x8f, 0xf8, 0x48, 0x06, 0x62, 0x10, 0x01, 0xa4, 0x18,
   0x00, 0x20, 0x02, 0x12, 0x61, 0x80, 0x40, 0xfc, 0x09, 0x86, 0x7f, 0x80,
   0x00, 0x04, 0x18, 0x00, 0x00, 0x01, 0x02, 0x60, 0x80, 0x00, 0xfe, 0x01,
   0x80, 0x7f, 0x00, 0x00, 0x00, 0x00, 0x00, 0x00, 0x00, 0x00, 0x00, 0x00,
   0x00, 0x00, 0x00, 0x00, 0x00, 0x00, 0x00, 0x00, 0x00, 0x00, 0x00, 0x00,
   0x00, 0x00, 0x00, 0x00, 0x00, 0x00, 0x00, 0x00 };
